<?xml version="1.0" encoding="UTF-8" standalone="no"?>
<!-- Created with Inkscape (http://www.inkscape.org/) -->

<svg
   xmlns:dc="http://purl.org/dc/elements/1.1/"
   xmlns:cc="http://creativecommons.org/ns#"
   xmlns:rdf="http://www.w3.org/1999/02/22-rdf-syntax-ns#"
   xmlns:svg="http://www.w3.org/2000/svg"
   xmlns="http://www.w3.org/2000/svg"
   xmlns:sodipodi="http://sodipodi.sourceforge.net/DTD/sodipodi-0.dtd"
   xmlns:inkscape="http://www.inkscape.org/namespaces/inkscape"
   width="50"
   height="67"
   id="svg3785"
   version="1.1"
   inkscape:version="0.48.4 r9939"
   sodipodi:docname="iconmonstr-smartphone-8-icon.svg">
  <defs
     id="defs3787" />
  <sodipodi:namedview
     id="base"
     pagecolor="#ffffff"
     bordercolor="#666666"
     borderopacity="1.0"
     inkscape:pageopacity="0.0"
     inkscape:pageshadow="2"
     inkscape:zoom="0.35"
     inkscape:cx="-116.42857"
     inkscape:cy="520"
     inkscape:document-units="px"
     inkscape:current-layer="layer1"
     showgrid="false"
     inkscape:window-width="1920"
     inkscape:window-height="1018"
     inkscape:window-x="-8"
     inkscape:window-y="-8"
     inkscape:window-maximized="1" />
  <metadata
     id="metadata3790">
    <rdf:RDF>
      <cc:Work
         rdf:about="">
        <dc:format>image/svg+xml</dc:format>
        <dc:type
           rdf:resource="http://purl.org/dc/dcmitype/StillImage" />
        <dc:title></dc:title>
      </cc:Work>
    </rdf:RDF>
  </metadata>
  <g
     inkscape:label="Calque 1"
     inkscape:groupmode="layer"
     id="layer1"
     transform="translate(0,-985.36218)">
    <path
       d="m 26.945021,1019.9703 v 18.6344 H 4.6061344 v -32.0805 h 5.9462526 c -0.8126946,-2.3606 -1.1425377,-4.8787 -0.9246954,-7.44325 H 3.1306742 c -1.7289614,0 -3.1306729485854,1.40135 -3.1306729485854,3.13055 0,0 9.725102254e-4,41.3626 0,42.9711 C -0.00405088,1051.8385 9.8335396,1052.3583 15.754183,1052.3622 c 5.920157,0 15.796972,-0.5072 15.796972,-7.1796 0,-0.8741 0,-13.4182 0,-24.7283 -1.516144,-0.039 -3.057573,-0.2007 -4.606134,-0.484 z m -11.169443,28.2801 c -1.728475,0 -3.129701,-1.4014 -3.129701,-3.13 0,-1.7286 1.401226,-3.1294 3.129701,-3.1294 1.728475,0 3.129538,1.4009 3.129538,3.1294 0,1.7285 -1.401063,3.13 -3.129538,3.13 z m 16.355193,-62.66676 c -9.438861,0 -17.869716,6.35357 -17.869716,15.04406 0,3.0822 1.100395,6.1087 3.047848,8.4567 0.08201,2.752 -1.522303,6.6989 -2.968102,9.5743 3.874481,-0.7068 9.382618,-2.2682 11.880673,-3.8124 C 39.975363,1018.2238 50,1009.7267 50,1000.6277 50,991.88972 41.510471,985.58364 32.130771,985.58364 z m -6.546778,17.75436 c -1.317913,0 -2.38573,-1.0679 -2.38573,-2.3858 0,-1.31724 1.067817,-2.38506 2.38573,-2.38506 1.31759,0 2.385406,1.06782 2.385406,2.38506 0,1.3179 -1.067816,2.3858 -2.385406,2.3858 z m 7.112779,0 c -1.31759,0 -2.385406,-1.0679 -2.385406,-2.3858 0,-1.31724 1.067816,-2.38506 2.385406,-2.38506 1.317913,0 2.38573,1.06782 2.38573,2.38506 0,1.3179 -1.067817,2.3858 -2.38573,2.3858 z m 7.026711,0 c -1.317913,0 -2.38573,-1.0679 -2.38573,-2.3858 0,-1.31724 1.067817,-2.38506 2.38573,-2.38506 1.316941,0 2.385082,1.06782 2.385082,2.38506 -1.62e-4,1.3179 -1.068141,2.3858 -2.385082,2.3858 z"
       id="smartphone-8-icon"
       inkscape:connector-curvature="0"
       style="fill:#3b3b3b;fill-opacity:1" />
  </g>
</svg>
